<svg xmlns="http://www.w3.org/2000/svg" viewBox="-2 -2 30 28" width="32" height="32">
  <rect x="-2" y="-2" width="30" height="28" rx="5" fill="#00F99B"/>
  <path d="M22.2476 0.000217687H14.1944C7.76672 0.000217687 2.55626 5.21081 2.55612 11.6383V14.6923C2.55612 14.7299 2.57108 14.766 2.59771 14.7927C2.62434 14.8193 2.66046 14.8343 2.69812 14.8343H4.322C4.35966 14.8343 4.39578 14.8193 4.42241 14.7927C4.44904 14.766 4.464 14.7299 4.464 14.6923V11.6385C4.464 6.26458 8.82048 1.90809 14.1944 1.90809H25.0634C25.1722 1.90809 25.2401 1.79109 25.1823 1.69907C24.5637 0.714749 23.6373 0.00106967 22.2502 0.000217687H22.2476Z" fill="#191919"/>
  <path d="M26.2168 4.69629C26.2111 4.66346 26.194 4.6337 26.1685 4.61226C26.1431 4.59082 26.1108 4.57909 26.0775 4.57914H14.1949C10.1907 4.57914 6.94476 7.8252 6.94476 11.8292V14.6922C6.94476 14.7299 6.95972 14.766 6.98635 14.7926C7.01298 14.8192 7.04909 14.8342 7.08675 14.8342H8.28464C8.43529 14.8342 8.57976 14.7744 8.68627 14.6678C8.79279 14.5613 8.85263 14.4168 8.85263 14.2662V11.8292C8.85263 8.87882 11.2444 6.48702 14.1949 6.48702H26.2571C26.2763 6.48707 26.2953 6.48319 26.313 6.47563C26.3306 6.46807 26.3466 6.45698 26.3598 6.44305C26.373 6.42911 26.3832 6.41263 26.3898 6.3946C26.3965 6.37657 26.3993 6.35738 26.3983 6.3382C26.3718 5.87757 26.3197 5.30603 26.2168 4.69629ZM4.15082 23.9222H12.2041C18.6317 23.9222 23.8423 18.7116 23.8423 12.2841L23.8425 9.23012C23.8425 9.19246 23.8275 9.15635 23.8009 9.12972C23.7742 9.10309 23.7381 9.08813 23.7005 9.08813H22.0764C22.0388 9.08813 22.0027 9.10309 21.976 9.12972C21.9494 9.15635 21.9344 9.19246 21.9344 9.23012V12.2839C21.9344 17.6578 17.5779 22.0143 12.2041 22.0143H1.33501C1.22624 22.0143 1.15836 22.1313 1.21616 22.2233C1.8347 23.2078 2.76109 23.9213 4.1484 23.9222H4.15082Z" fill="#191919"/>
  <path d="M0.181751 19.2256C0.193252 19.2935 0.252178 19.3428 0.321044 19.3428H12.2031C16.2071 19.3428 19.4529 16.097 19.4529 12.093V9.23018C19.4529 9.19253 19.4379 9.15641 19.4113 9.12978C19.3847 9.10315 19.3486 9.08819 19.3109 9.08819H18.1131C17.9624 9.08819 17.818 9.14803 17.7115 9.25455C17.6049 9.36106 17.5451 9.50552 17.5451 9.65616V12.093C17.5451 15.0433 15.1534 17.435 12.2031 17.435H0.141425C0.122221 17.4349 0.10321 17.4388 0.0855571 17.4464C0.0679041 17.4539 0.0519816 17.465 0.0387661 17.479C0.0255506 17.4929 0.0153208 17.5094 0.00870386 17.5274C0.00208697 17.5454 -0.000777446 17.5646 0.000286275 17.5838C0.0265546 18.0444 0.0788072 18.6159 0.181751 19.2256Z" fill="#191919"/>
</svg>
