<svg xmlns="http://www.w3.org/2000/svg" viewBox="0 0 34 34" width="32" height="32">
  <rect width="34" height="34" rx="7" fill="#00F99B"/>
  <path d="M10.7486 14.7802C10.7486 16.309 11.9872 17.5478 13.5162 17.5478C15.045 17.5478 16.2838 16.309 16.2838 14.7802C16.2838 13.2512 15.045 12.0126 13.5162 12.0126C11.9872 12.0126 10.7486 13.2512 10.7486 14.7802Z" fill="#191919"/>
  <path d="M17.7242 14.7802C17.7242 16.309 18.963 17.5478 20.4918 17.5478C22.0207 17.5478 23.2594 16.309 23.2594 14.7802C23.2594 13.2512 22.0207 12.0126 20.4918 12.0126C18.963 12.0126 17.7242 13.2512 17.7242 14.7802Z" fill="#191919"/>
  <path d="M30.1161 27.8165V18.3837H26.5574C25.8378 23.1415 21.913 26.6071 17 26.6071C11.5714 26.6071 7.23411 22.3765 7.23411 16.8447C7.23411 11.3129 11.5714 7.00277 17.0012 7.00277C21.734 7.00277 25.6349 10.2793 26.5597 14.7831H30.1184C29.1448 8.37978 23.5575 3.47585 17 3.47585C9.7546 3.47585 3.88171 9.46211 3.88171 16.8435C3.88171 24.2249 9.7546 30.2111 17 30.2111C21.5594 30.2111 24.7384 28.0997 26.6889 24.7745C26.7354 24.7881 26.783 24.7983 26.8272 24.8119V30.8731C28.0546 30.0027 29.1607 28.9735 30.1161 27.8153V27.8165Z" fill="#191919"/>
</svg>
