<svg xmlns="http://www.w3.org/2000/svg" viewBox="-1.5 -1.5 14.5 14.5" width="32" height="32">
  <rect x="-1.5" y="-1.5" width="14.5" height="14.5" rx="3" fill="#00F99B"/>
  <path d="M9.21131 0.000144076H5.87687C3.21567 0.000144076 1.0583 2.15752 1.0583 4.81906V6.08356C1.05838 6.09912 1.0646 6.11401 1.0756 6.12501C1.0866 6.13601 1.10149 6.14223 1.11705 6.14232H1.78926C1.80484 6.14232 1.81979 6.13613 1.8308 6.12511C1.84182 6.11409 1.84801 6.09915 1.84801 6.08356V4.81906C1.84801 2.59405 3.65186 0.790203 5.87721 0.790203H10.3774C10.3877 0.790404 10.3977 0.787841 10.4066 0.782784C10.4155 0.777728 10.4228 0.770366 10.4279 0.761477C10.4329 0.752588 10.4355 0.742503 10.4352 0.732288C10.435 0.722072 10.432 0.712106 10.4266 0.703443C10.1704 0.295946 9.78686 0.000485649 9.21233 0.000144076H9.21165H9.21131Z" fill="#191919"/>
  <path d="M1.71856 9.90577H5.05299C7.71453 9.90577 9.87191 7.74805 9.87191 5.08685V3.82235C9.87191 3.80677 9.86572 3.79182 9.8547 3.78081C9.84369 3.76979 9.82874 3.7636 9.81316 3.7636H9.14026C9.12471 3.76369 9.10982 3.76991 9.09882 3.78091C9.08782 3.7919 9.0816 3.8068 9.08151 3.82235V5.08685C9.08151 7.31186 7.278 9.11571 5.05265 9.11571H0.553108C0.542944 9.11555 0.532923 9.11812 0.524095 9.12316C0.515267 9.1282 0.507957 9.13552 0.502928 9.14436C0.4979 9.15319 0.495339 9.16322 0.495514 9.17338C0.495689 9.18354 0.498592 9.19347 0.503921 9.20213C0.760101 9.60997 1.14369 9.90543 1.71787 9.90577H1.7189H1.71856Z" fill="#191919"/>
  <path d="M10.588 1.89671C10.5857 1.88345 10.5788 1.87139 10.5685 1.86273C10.5582 1.85407 10.5451 1.84933 10.5317 1.8494H5.7328C4.11568 1.8494 2.80473 3.16028 2.80473 4.7774V5.93362C2.80473 5.94888 2.8108 5.96341 2.82152 5.9742C2.83232 5.98493 2.84691 5.991 2.8621 5.991H3.34586C3.37598 5.991 3.40583 5.98507 3.43368 5.97354C3.46147 5.96201 3.48679 5.94509 3.50811 5.92383C3.52937 5.90251 3.54629 5.87719 3.55782 5.8494C3.56935 5.82155 3.57528 5.7917 3.57528 5.76158V4.7774C3.57528 3.58587 4.5412 2.61988 5.7328 2.61988H10.6042C10.637 2.61988 10.6631 2.5925 10.6613 2.55978C10.6506 2.37374 10.6296 2.14292 10.588 1.89671ZM1.6764 9.66123H4.92874C7.52464 9.66123 9.62899 7.55688 9.62899 4.96104V3.72773C9.62899 3.71247 9.62299 3.69788 9.61219 3.68715C9.60147 3.67642 9.58687 3.67036 9.57168 3.67036H8.91581C8.90062 3.67036 8.88602 3.67642 8.87529 3.68715C8.8645 3.69788 8.8585 3.71247 8.8585 3.72773V4.96104C8.85844 7.13136 7.09905 8.89075 4.9288 8.89075H0.539212C0.495274 8.89075 0.467841 8.93792 0.491209 8.97517C0.741031 9.3727 1.11512 9.66089 1.6754 9.66123H1.6764Z" fill="#191919"/>
</svg>
